<svg width="1920" height="1375" viewBox="0 0 1920 1375" fill="none" xmlns="http://www.w3.org/2000/svg">
<mask id="mask0_19_63" style="mask-type:alpha" maskUnits="userSpaceOnUse" x="0" y="0" width="1920" height="1375">
<path fill-rule="evenodd" clip-rule="evenodd" d="M1642 1087.81C1795.54 1087.81 1920 1212.27 1920 1365.81V1087.81H1642ZM1919.86 1374.81H1920V1365.81C1920 1368.82 1919.95 1371.82 1919.86 1374.81Z" fill="#171B29"/>
<path fill-rule="evenodd" clip-rule="evenodd" d="M278 287.81C124.465 287.81 0 163.345 0 9.80957V287.81H278ZM0.142944 0.80957H0V9.80957C0 6.7981 0.0479126 3.79785 0.142944 0.80957Z" fill="#171B29"/>
<path d="M0 287.81H1920V1087.81H0V287.81Z" fill="#171B29"/>
</mask>
<g mask="url(#mask0_19_63)">
<path d="M-214 -103.466L-31.5445 1264.81L768.61 1264.81L235.22 -103.466L-214 -103.466Z" fill="url(#paint0_linear_19_63)"/>
<path d="M934.875 1261.46L490.26 125.999L919.827 19.2309L1398.66 -95.0818L1562.36 -95.0818L1468.68 108.26L1858.54 1261.23L934.875 1261.46Z" fill="url(#paint1_linear_19_63)"/>
<path d="M217.089 -120.234L399.167 325.468L-32.9043 1264.81L937.712 1264.81L859.578 1068.84L1400.77 -96.566L217.089 -120.234Z" fill="#FFD100"/>
<path d="M1569.94 -142.101L849 1415.81L1935.1 1415.81L2777 -477.19L1569.94 -142.101Z" fill="#E20613"/>
<path d="M1400.77 -95.5147L1400.42 -96.7585L391.328 -96.7585L859.996 1070.3L1400.77 -95.5147Z" fill="url(#paint2_linear_19_63)"/>
<path d="M-32.9043 1264.81H768.61L399.224 325.797L-32.9043 1264.81Z" fill="url(#paint3_linear_19_63)"/>
<path d="M921 1261.46L1756.05 1261.46L1404.09 215.128L921 1261.46Z" fill="url(#paint4_linear_19_63)"/>
</g>
<defs>
<linearGradient id="paint0_linear_19_63" x1="188.822" y1="1264.81" x2="188.822" y2="158.94" gradientUnits="userSpaceOnUse">
<stop stop-color="#2B3087"/>
<stop offset="0.82" stop-color="#00B4EC"/>
</linearGradient>
<linearGradient id="paint1_linear_19_63" x1="1174.06" y1="1261.46" x2="1174.06" y2="-98.871" gradientUnits="userSpaceOnUse">
<stop stop-color="#2B3087"/>
<stop offset="1" stop-color="#00B4EC"/>
</linearGradient>
<linearGradient id="paint2_linear_19_63" x1="945.346" y1="1066.95" x2="945.346" y2="-96.7585" gradientUnits="userSpaceOnUse">
<stop stop-color="#009540"/>
<stop offset="1" stop-color="#26A960"/>
</linearGradient>
<linearGradient id="paint3_linear_19_63" x1="367.853" y1="325.797" x2="367.853" y2="1264.81" gradientUnits="userSpaceOnUse">
<stop stop-color="#3FAE6C"/>
<stop offset="1" stop-color="#006633"/>
</linearGradient>
<linearGradient id="paint4_linear_19_63" x1="921" y1="738.395" x2="1756.05" y2="738.395" gradientUnits="userSpaceOnUse">
<stop stop-color="#164194"/>
<stop offset="1" stop-color="#005CA9"/>
</linearGradient>
</defs>
</svg>
