<svg width="201" height="48" viewBox="0 0 201 48" fill="none" xmlns="http://www.w3.org/2000/svg">
<path d="M77 7.79999H44.67C44.4048 7.79999 44.1505 7.90534 43.9629 8.09288C43.7754 8.28042 43.67 8.53477 43.67 8.79999V15C43.67 15.2652 43.7754 15.5196 43.9629 15.7071C44.1505 15.8946 44.4048 16 44.67 16H55.83V40.41C55.83 40.6752 55.9354 40.9296 56.1229 41.1171C56.3105 41.3046 56.5648 41.41 56.83 41.41H64.83C65.0952 41.41 65.3496 41.3046 65.5371 41.1171C65.7247 40.9296 65.83 40.6752 65.83 40.41V16H77C77.2652 16 77.5196 15.8946 77.7071 15.7071C77.8947 15.5196 78 15.2652 78 15V8.79999C78 8.53477 77.8947 8.28042 77.7071 8.09288C77.5196 7.90534 77.2652 7.79999 77 7.79999ZM37.59 7.79999H5.27002C5.0048 7.79999 4.75045 7.90534 4.56291 8.09288C4.37538 8.28042 4.27002 8.53477 4.27002 8.79999V15C4.27002 15.2652 4.37538 15.5196 4.56291 15.7071C4.75045 15.8946 5.0048 16 5.27002 16H16.42V40.41C16.42 40.6752 16.5254 40.9296 16.7129 41.1171C16.9004 41.3046 17.1548 41.41 17.42 41.41H25.42C25.6852 41.41 25.9396 41.3046 26.1271 41.1171C26.3147 40.9296 26.42 40.6752 26.42 40.41V16H37.56C37.8252 16 38.0796 15.8946 38.2671 15.7071C38.4547 15.5196 38.56 15.2652 38.56 15V8.79999C38.56 8.53477 38.4547 8.28042 38.2671 8.09288C38.0796 7.90534 37.8252 7.79999 37.56 7.79999H37.59Z" fill="#323333"/>
<path d="M101.36 21.09V17.72C101.36 17.4548 101.255 17.2004 101.067 17.0129C100.88 16.8254 100.625 16.72 100.36 16.72H94.07V10.72C94.07 10.4548 93.9646 10.2004 93.7771 10.0129C93.5896 9.82536 93.3352 9.72 93.07 9.72H87.24C86.9748 9.72 86.7204 9.82536 86.5329 10.0129C86.3454 10.2004 86.24 10.4548 86.24 10.72V16.72H84C83.7348 16.72 83.4804 16.8254 83.2929 17.0129C83.1054 17.2004 83 17.4548 83 17.72V21.09C83 21.3552 83.1054 21.6096 83.2929 21.7971C83.4804 21.9846 83.7348 22.09 84 22.09H86.21V33.63C86.21 36.65 86.95 38.7833 88.43 40.03C89.92 41.27 92.18 41.9 95.21 41.9C96.3662 41.9083 97.5217 41.8449 98.67 41.71C99.32 41.62 99.96 41.51 100.57 41.38C100.792 41.3253 100.988 41.1962 101.127 41.0142C101.265 40.8323 101.337 40.6084 101.33 40.38V37.55C101.33 37.41 101.33 37.26 101.26 37.12C101.225 37.0167 101.181 36.9164 101.13 36.82L101.02 36.64C100.874 36.5003 100.709 36.3824 100.53 36.29H100.47H100.4L100.22 36.24H100H99.83H99.72L99.39 36.34C98.8722 36.4896 98.3385 36.5768 97.8 36.6C97.0271 36.6452 96.2555 36.4902 95.56 36.15C95.0741 35.878 94.6963 35.4473 94.49 34.93C94.2664 34.3767 94.1477 33.7867 94.14 33.19C94.14 32.54 94.14 31.79 94.14 30.92V22.09H100.43C100.683 22.0723 100.92 21.9591 101.092 21.7735C101.265 21.5878 101.361 21.3435 101.36 21.09Z" fill="#323333"/>
<path d="M126.14 16.73C125.326 16.4234 124.46 16.2741 123.59 16.29C122.683 16.2861 121.786 16.4708 120.954 16.8323C120.123 17.1938 119.376 17.7243 118.76 18.39C117.507 19.6038 116.526 21.0694 115.88 22.69V17.69C115.88 17.4248 115.775 17.1704 115.587 16.9829C115.4 16.7954 115.145 16.69 114.88 16.69H108.27C108.005 16.69 107.75 16.7954 107.563 16.9829C107.375 17.1704 107.27 17.4248 107.27 17.69V40.41C107.27 40.6752 107.375 40.9296 107.563 41.1171C107.75 41.3046 108.005 41.41 108.27 41.41H114.88C115.145 41.41 115.4 41.3046 115.587 41.1171C115.775 40.9296 115.88 40.6752 115.88 40.41V30.79C116.387 29.0841 117.257 27.5081 118.43 26.17C119.275 25.356 120.407 24.9071 121.58 24.92C122.634 24.9404 123.655 25.2901 124.5 25.92C124.625 26.0137 124.77 26.0768 124.924 26.1042C125.078 26.1317 125.236 26.1226 125.386 26.0779C125.536 26.0332 125.673 25.954 125.786 25.8467C125.9 25.7394 125.987 25.6069 126.04 25.46L128.26 19.34C128.62 18.34 128.43 17.86 128.01 17.62C127.405 17.2863 126.781 16.9891 126.14 16.73Z" fill="#323333"/>
<path d="M141.07 16.73H134.43C134.165 16.73 133.91 16.8354 133.723 17.0229C133.535 17.2104 133.43 17.4648 133.43 17.73V40.41C133.43 40.6752 133.535 40.9296 133.723 41.1171C133.91 41.3046 134.165 41.41 134.43 41.41H141.07C141.335 41.41 141.59 41.3046 141.777 41.1171C141.965 40.9296 142.07 40.6752 142.07 40.41V17.73C142.07 17.4648 141.965 17.2104 141.777 17.0229C141.59 16.8354 141.335 16.73 141.07 16.73ZM140.3 8.43C139.964 8.07496 139.557 7.79446 139.106 7.60669C138.654 7.41892 138.169 7.32806 137.68 7.34C136.729 7.3711 135.828 7.77008 135.166 8.45284C134.503 9.13561 134.132 10.0488 134.13 11C134.121 11.6485 134.287 12.2875 134.61 12.85C134.917 13.4016 135.366 13.8608 135.91 14.18C136.466 14.5017 137.098 14.6675 137.74 14.66C138.216 14.6663 138.689 14.5755 139.129 14.3933C139.569 14.2111 139.967 13.9411 140.3 13.6C140.972 12.9311 141.359 12.028 141.38 11.08C141.391 10.5878 141.301 10.0986 141.115 9.64274C140.93 9.18686 140.652 8.77406 140.3 8.43Z" fill="#323333"/>
<path d="M173.31 21.78C172.334 20.0187 170.873 18.5747 169.1 17.62C167.492 16.7627 165.702 16.3064 163.88 16.29C162.424 16.2277 160.972 16.4908 159.63 17.06C158.594 17.5586 157.631 18.198 156.77 18.96V17.73C156.77 17.4648 156.665 17.2104 156.477 17.0229C156.289 16.8353 156.035 16.73 155.77 16.73H149.16C148.895 16.73 148.64 16.8353 148.453 17.0229C148.265 17.2104 148.16 17.4648 148.16 17.73V45.15C148.16 45.4152 148.265 45.6696 148.453 45.8571C148.64 46.0446 148.895 46.15 149.16 46.15H155.77C156.035 46.15 156.289 46.0446 156.477 45.8571C156.665 45.6696 156.77 45.4152 156.77 45.15V40C157.635 40.5445 158.553 41.0001 159.51 41.36C160.728 41.7434 162.003 41.9158 163.28 41.87C165.076 41.9092 166.857 41.5399 168.49 40.79C169.923 40.1139 171.177 39.1102 172.15 37.86C173.104 36.6139 173.822 35.2041 174.27 33.7C174.747 32.1444 174.993 30.5271 175 28.9C175.078 26.4188 174.495 23.9615 173.31 21.78ZM164.53 33.85C164.143 34.3905 163.633 34.8305 163.041 35.1332C162.45 35.436 161.794 35.5926 161.13 35.59C160.706 35.5913 160.283 35.5443 159.87 35.45C159.494 35.3569 159.126 35.2331 158.77 35.08C158.426 34.9276 158.092 34.7539 157.77 34.56C157.43 34.36 157.11 34.18 156.77 34.02V24.58C157.335 24.0913 157.956 23.6717 158.62 23.33C159.407 22.9735 160.267 22.8057 161.13 22.84C161.99 22.8395 162.831 23.0874 163.553 23.554C164.275 24.0206 164.847 24.686 165.2 25.47C165.702 26.6086 165.938 27.8466 165.89 29.09C165.984 30.7844 165.505 32.4613 164.53 33.85Z" fill="#323333"/>
<path d="M197.27 30.89C196.681 29.8396 195.839 28.9528 194.82 28.31C193.377 27.3738 191.835 26.6023 190.22 26.01C189.305 25.7152 188.441 25.28 187.66 24.72C187.49 24.5828 187.352 24.4111 187.254 24.2163C187.155 24.0215 187.1 23.808 187.09 23.59C187.101 23.3699 187.155 23.1541 187.249 22.955C187.343 22.756 187.476 22.5775 187.64 22.43C188.202 21.9765 188.922 21.7643 189.64 21.84C190.443 21.842 191.243 21.9462 192.02 22.15C192.705 22.3215 193.375 22.5523 194.02 22.84C194.22 22.92 194.38 23 194.54 23.08C194.828 23.1878 195.126 23.2681 195.43 23.32H195.7C195.773 23.3298 195.847 23.3298 195.92 23.32L196.1 23.26C196.372 23.0662 196.566 22.783 196.65 22.46C196.65 22.39 196.65 22.32 196.65 22.25V18.95C196.652 18.7609 196.601 18.575 196.502 18.4139C196.403 18.2529 196.26 18.1232 196.09 18.04C195.168 17.6153 194.207 17.2804 193.22 17.04C192.236 16.7725 191.233 16.5819 190.22 16.47C189.43 16.4 188.78 16.36 188.22 16.36C186.352 16.3082 184.496 16.6774 182.79 17.44C181.434 18.0376 180.271 19.0001 179.43 20.22C178.717 21.2637 178.331 22.496 178.32 23.76C178.277 25.3861 178.877 26.9635 179.99 28.15C181.141 29.3672 182.525 30.3399 184.06 31.01C185.35 31.56 186.39 32.01 187.16 32.42C187.751 32.6989 188.299 33.059 188.79 33.49C188.935 33.6302 189.05 33.798 189.129 33.9835C189.208 34.169 189.249 34.3684 189.25 34.57C189.25 35.77 188.18 36.37 186.02 36.37C184.815 36.383 183.619 36.1587 182.5 35.71C181.82 35.43 181.05 35.06 180.2 34.62C180.048 34.537 179.878 34.4947 179.705 34.4974C179.532 34.5 179.362 34.5475 179.213 34.6352C179.064 34.7228 178.94 34.8477 178.854 34.9975C178.767 35.1473 178.721 35.317 178.72 35.49V39.3C178.708 39.5168 178.767 39.7317 178.888 39.9121C179.009 40.0925 179.185 40.2287 179.39 40.3C180.797 40.7933 182.107 41.1833 183.32 41.47C184.899 41.8206 186.513 41.9883 188.13 41.97C191.35 41.97 193.78 41.2633 195.42 39.85C196.254 39.1713 196.921 38.3095 197.369 37.3313C197.816 36.3532 198.032 35.2851 198 34.21C198.03 33.0604 197.78 31.9208 197.27 30.89Z" fill="#323333"/>
<path d="M188 4.17999C187.87 3.90156 187.713 3.63689 187.53 3.38999C187.44 3.28999 187.36 3.22999 187.26 3.23999C187.166 3.2406 187.073 3.26465 186.99 3.30999C186.938 3.33397 186.894 3.37189 186.862 3.41955C186.83 3.46721 186.812 3.52275 186.81 3.57999C186.815 3.658 186.839 3.73361 186.88 3.79999C186.99 3.97999 187.19 4.32999 187.29 4.50999C187.315 4.56241 187.355 4.60639 187.405 4.63658C187.454 4.66676 187.512 4.68184 187.57 4.67999C187.651 4.6739 187.729 4.65 187.8 4.60999C187.863 4.58725 187.918 4.54689 187.959 4.49371C188 4.44053 188.024 4.37676 188.03 4.30999C188.024 4.26589 188.014 4.2224 188 4.17999ZM192.59 8.71999H190.7V6.93999C190.7 6.69999 190.85 6.61999 191.07 6.61999H192.59V8.71999ZM192.59 12H191.06C190.83 12 190.7 11.92 190.7 11.68V9.52999H192.59V12ZM193.49 12V9.51999H195.49V11.68C195.49 11.92 195.36 12 195.14 12H193.49ZM195.49 8.70999H193.49V6.60999H195.13C195.35 6.60999 195.48 6.67999 195.48 6.92999L195.49 8.70999ZM190.78 5.77999C190.1 5.77999 189.78 6.08999 189.78 6.77999V11.91C189.78 12.57 190.14 12.91 190.78 12.91H195.38C196.07 12.91 196.38 12.6 196.38 11.91V6.77999C196.38 6.08999 196.05 5.77999 195.38 5.77999H190.78ZM185.87 3.93999C185.835 3.89631 185.791 3.86103 185.741 3.83678C185.691 3.81254 185.636 3.79996 185.58 3.79999C185.496 3.80459 185.414 3.82854 185.34 3.86999C185.28 3.89106 185.229 3.93045 185.193 3.98254C185.157 4.03463 185.138 4.09673 185.14 4.15999C185.146 4.23456 185.17 4.30656 185.21 4.36999C185.417 4.68793 185.598 5.02239 185.75 5.36999C185.775 5.42351 185.814 5.46887 185.864 5.50076C185.913 5.53264 185.971 5.54972 186.03 5.54999C186.114 5.54407 186.196 5.5202 186.27 5.47999C186.338 5.45756 186.397 5.41486 186.44 5.35765C186.483 5.30044 186.507 5.23146 186.51 5.15999C186.518 5.11363 186.518 5.06634 186.51 5.01999C186.326 4.63906 186.105 4.2773 185.85 3.93999H185.87ZM188.54 1.51999C187.477 2.15845 186.297 2.57989 185.07 2.75999C184.97 2.77469 184.879 2.82565 184.815 2.90313C184.75 2.98062 184.716 3.07919 184.72 3.17999V3.26999C184.73 3.37526 184.778 3.47322 184.856 3.54517C184.933 3.61711 185.034 3.65799 185.14 3.65999H185.23C186.549 3.39699 187.82 2.93504 189 2.28999C189.071 2.25495 189.131 2.2009 189.174 2.13384C189.216 2.06677 189.239 1.9893 189.24 1.90999C189.234 1.82149 189.206 1.73581 189.16 1.65999C189.12 1.60097 189.066 1.55217 189.004 1.51745C188.941 1.48273 188.871 1.46306 188.8 1.45999C188.703 1.45392 188.606 1.47467 188.52 1.51999H188.54ZM194.76 3.04999V1.82999C194.76 1.59999 194.59 1.47999 194.3 1.47999C194.01 1.47999 193.88 1.60999 193.88 1.83999V3.04999H192V1.84999C192 1.60999 191.82 1.47999 191.55 1.48999C191.28 1.49999 191.11 1.60999 191.11 1.85999V3.05999H189.58C189.37 3.05999 189.24 3.24999 189.24 3.50999C189.24 3.76999 189.37 3.90999 189.58 3.89999H191.12V4.99999C191.12 5.23999 191.31 5.34999 191.56 5.34999C191.81 5.34999 192 5.22999 192 4.99999V3.89999H193.83V4.99999C193.83 5.24999 194 5.36999 194.25 5.36999C194.5 5.36999 194.72 5.23999 194.71 4.99999V3.88999H196.5C196.72 3.88999 196.84 3.73999 196.84 3.49999C196.84 3.25999 196.72 3.04999 196.49 3.04999H194.76ZM188.16 8.99999C187.131 9.87452 185.966 10.5739 184.71 11.07C184.627 11.0959 184.555 11.148 184.505 11.2183C184.454 11.2886 184.428 11.3734 184.43 11.46C184.432 11.537 184.453 11.6124 184.49 11.68C184.519 11.7609 184.571 11.8311 184.641 11.8812C184.711 11.9313 184.794 11.9588 184.88 11.96C184.952 11.9786 185.028 11.9786 185.1 11.96C186.216 11.4262 187.261 10.7543 188.21 9.95999C188.217 10.5081 188.16 11.0552 188.04 11.59C187.92 12.13 187.74 12.25 187.32 12.25C187.056 12.2483 186.793 12.2078 186.54 12.13H186.46C186.362 12.1355 186.269 12.1742 186.197 12.2397C186.124 12.3051 186.076 12.3934 186.06 12.49C186.055 12.5365 186.055 12.5835 186.06 12.63C186.049 12.7293 186.077 12.8291 186.139 12.9077C186.201 12.9864 186.291 13.0375 186.39 13.05C186.698 13.1203 187.014 13.1571 187.33 13.16C187.659 13.203 187.992 13.1254 188.268 12.9415C188.543 12.7576 188.743 12.4799 188.83 12.16C189.035 11.4622 189.133 10.7372 189.12 10.01V9.60999C189.136 8.22431 188.728 6.86688 187.95 5.71999C188.396 5.39935 188.808 5.03413 189.18 4.62999C189.267 4.54162 189.317 4.42372 189.32 4.29999C189.32 4.24817 189.308 4.19706 189.285 4.15037C189.263 4.10368 189.23 4.06256 189.19 4.02999C189.105 3.95356 188.994 3.91089 188.88 3.90999C188.824 3.91187 188.768 3.92631 188.718 3.95225C188.668 3.9782 188.624 4.01501 188.59 4.05999C187.536 5.1141 186.262 5.92324 184.86 6.42999C184.781 6.45614 184.713 6.50748 184.666 6.57613C184.619 6.64477 184.596 6.72692 184.6 6.80999C184.587 6.86256 184.587 6.91741 184.6 6.96999C184.628 7.05338 184.682 7.12561 184.754 7.17602C184.826 7.22644 184.912 7.25237 185 7.24999H185.16C185.852 6.96892 186.52 6.63458 187.16 6.24999C187.346 6.53381 187.503 6.83527 187.63 7.14999C186.748 7.80704 185.778 8.33876 184.75 8.72999C184.673 8.76179 184.607 8.81588 184.561 8.88534C184.514 8.95481 184.49 9.0365 184.49 9.11999C184.476 9.17579 184.476 9.23418 184.49 9.28999C184.521 9.36828 184.575 9.43562 184.644 9.48363C184.714 9.53164 184.796 9.55819 184.88 9.55999C184.939 9.57402 185.001 9.57402 185.06 9.55999C186.116 9.12839 187.106 8.5493 188 7.83999C188.074 8.22356 188.127 8.61077 188.16 8.99999ZM173 7.71999H178C178.25 7.71999 178.38 7.48999 178.38 7.21999C178.38 6.94999 178.24 6.72999 177.99 6.72999H172.99V5.82999C174.353 5.23453 175.609 4.42048 176.71 3.41999C176.889 3.24526 176.996 3.00977 177.01 2.75999C177.01 2.35999 176.7 2.01999 176.08 2.01999H168.08C167.83 2.01999 167.68 2.23999 167.68 2.50999C167.68 2.77999 167.83 2.97999 168.08 2.97999H175.38C175.48 2.97999 175.53 3.00999 175.53 3.06999C175.525 3.10601 175.513 3.14064 175.494 3.17164C175.475 3.20265 175.45 3.22934 175.42 3.24999C174.599 3.9621 173.68 4.55155 172.69 4.99999H172.49C172.19 4.99999 171.96 5.13999 171.96 5.37999V6.73999H166.72C166.47 6.73999 166.34 6.95999 166.34 7.21999C166.34 7.47999 166.48 7.71999 166.73 7.71999H171.96V11.59C171.96 11.99 171.86 12.09 171.13 12.09C170.746 12.0781 170.364 12.0279 169.99 11.94H169.88C169.77 11.939 169.664 11.9781 169.581 12.0499C169.498 12.1217 169.445 12.2213 169.43 12.33C169.416 12.379 169.416 12.431 169.43 12.48C169.427 12.5903 169.462 12.6983 169.53 12.7858C169.597 12.8732 169.693 12.9347 169.8 12.96C170.297 13.0811 170.808 13.1349 171.32 13.12C172.59 13.12 173.05 12.76 173.05 11.91L173 7.71999ZM155.23 11.66C155.06 11.66 154.96 11.66 154.96 11.43V10.89C154.96 10.7 155.07 10.65 155.24 10.65H156.71C156.88 10.65 156.98 10.65 156.99 10.9V11.43C156.99 11.62 156.88 11.66 156.71 11.66H155.23ZM157.79 10.75C157.79 10.15 157.58 9.94999 156.93 9.94999H155C154.34 9.94999 154.13 10.16 154.13 10.76V11.53C154.13 12.14 154.34 12.34 155 12.34H157C157.65 12.34 157.86 12.13 157.86 11.53L157.79 10.75ZM157.18 8.07999H158.59C158.84 8.07999 158.96 8.16999 158.96 8.42999V8.84999C158.668 8.88601 158.374 8.90271 158.08 8.89999H157.54C157.22 8.89999 157.18 8.81999 157.18 8.54999V8.07999ZM154.65 8.07999C154.59 8.72999 154.27 9.07999 153.53 9.37999C153.467 9.40608 153.413 9.45056 153.376 9.50763C153.338 9.5647 153.319 9.63173 153.32 9.69999C153.32 9.76185 153.341 9.82187 153.38 9.86999C153.406 9.92928 153.447 9.98029 153.5 10.0174C153.553 10.0544 153.615 10.0761 153.68 10.08C153.753 10.0814 153.825 10.0642 153.89 10.03C154.313 9.89679 154.685 9.63964 154.96 9.29191C155.235 8.94419 155.398 8.52194 155.43 8.07999H156.43V8.72999C156.43 9.32999 156.7 9.50999 157.34 9.53999C157.56 9.53999 157.78 9.53999 158.02 9.53999C158.354 9.54138 158.688 9.52134 159.02 9.47999V12C159.02 12.38 158.93 12.48 158.56 12.48C158.293 12.4819 158.028 12.4483 157.77 12.38H157.68C157.52 12.38 157.39 12.5 157.35 12.73V12.82C157.346 12.9114 157.375 13.0012 157.432 13.0729C157.489 13.1445 157.57 13.1932 157.66 13.21C158.023 13.2781 158.391 13.3116 158.76 13.31C159.63 13.31 159.96 12.95 159.96 12.17V8.24999C159.96 7.55999 159.6 7.24999 158.84 7.24999H153.31C152.58 7.24999 152.2 7.59999 152.2 8.24999V12.97C152.2 13.19 152.38 13.33 152.67 13.33C152.96 13.33 153.14 13.19 153.13 12.97V8.42999C153.13 8.17999 153.25 8.08999 153.5 8.08999L154.65 8.07999ZM150.59 3.99999V1.84999C150.59 1.60999 150.43 1.46999 150.13 1.46999C149.83 1.46999 149.66 1.60999 149.66 1.84999V3.99999H148.43C148.19 3.99999 148.06 4.16999 148.06 4.41999C148.06 4.66999 148.2 4.83999 148.44 4.83999H149.55C149.262 6.35136 148.681 7.79177 147.84 9.07999C147.782 9.18101 147.748 9.29384 147.74 9.40999C147.736 9.47696 147.748 9.5439 147.776 9.60493C147.804 9.66595 147.847 9.71919 147.9 9.75999C147.953 9.80248 148.015 9.83216 148.081 9.84669C148.148 9.86122 148.216 9.86022 148.282 9.84376C148.348 9.8273 148.409 9.79582 148.461 9.7518C148.513 9.70777 148.553 9.65239 148.58 9.58999C149.204 8.50777 149.64 7.32777 149.87 6.09999C149.762 6.95274 149.698 7.81059 149.68 8.66999V13.04C149.68 13.28 149.84 13.42 150.13 13.42C150.42 13.42 150.61 13.28 150.61 13.03V7.85999C150.61 7.33999 150.5 6.38999 150.44 5.78999C150.63 6.46271 150.92 7.10315 151.3 7.68999C151.335 7.74868 151.385 7.79712 151.445 7.83047C151.504 7.86382 151.572 7.88089 151.64 7.87999C151.736 7.8772 151.827 7.84193 151.9 7.77999C151.946 7.74689 151.984 7.70337 152.01 7.65297C152.036 7.60257 152.05 7.54673 152.05 7.48999C152.047 7.35549 151.993 7.22711 151.9 7.12999C151.368 6.43187 150.941 5.66056 150.63 4.83999H151.41C151.63 4.83999 151.76 4.67999 151.76 4.41999C151.76 4.15999 151.63 3.99999 151.4 3.99999H150.59ZM155.15 4.67999C154.292 5.2966 153.349 5.78505 152.35 6.12999C152.275 6.15553 152.211 6.20423 152.166 6.26899C152.121 6.33374 152.098 6.41117 152.1 6.48999C152.092 6.5497 152.092 6.61028 152.1 6.66999C152.128 6.74082 152.178 6.80063 152.243 6.84033C152.308 6.88003 152.384 6.89746 152.46 6.88999H152.64C153.94 6.41719 155.124 5.6703 156.11 4.69999H156.17V5.80999C156.17 6.08999 156.08 6.18999 155.8 6.18999C155.578 6.18098 155.357 6.15084 155.14 6.09999H155.05C154.966 6.10027 154.885 6.12914 154.819 6.18185C154.754 6.23455 154.708 6.30796 154.69 6.38999C154.685 6.42649 154.685 6.46349 154.69 6.49999C154.689 6.58364 154.72 6.66457 154.775 6.7273C154.83 6.79003 154.907 6.83015 154.99 6.83999C155.3 6.90114 155.614 6.93128 155.93 6.92999C156.63 6.92999 157.04 6.70999 157.04 6.01999V4.68999H158.88C159 4.68999 159.07 4.68999 159.07 4.77999C159.055 4.82134 159.031 4.8589 159 4.88999C158.7 5.17934 158.364 5.42813 158 5.62999C157.947 5.66267 157.904 5.70837 157.874 5.76268C157.845 5.81699 157.829 5.87806 157.83 5.93999C157.827 5.98793 157.835 6.03588 157.852 6.0807C157.869 6.12551 157.896 6.16617 157.93 6.19999C157.973 6.25035 158.027 6.29073 158.087 6.31835C158.148 6.34597 158.214 6.36017 158.28 6.35999C158.398 6.35398 158.512 6.31595 158.61 6.24999C159.089 5.93322 159.515 5.54157 159.87 5.08999C160.002 4.92924 160.077 4.72828 160.08 4.51999C160.08 4.16999 159.8 3.91999 159.31 3.91999H156.76C157.434 3.65711 158.078 3.32182 158.68 2.91999C158.771 2.86179 158.848 2.78225 158.902 2.68819C158.956 2.59413 158.986 2.48837 158.99 2.37999C158.99 2.07999 158.71 1.80999 158.17 1.80999H153.04C152.993 1.81105 152.946 1.82201 152.903 1.84215C152.86 1.8623 152.822 1.89119 152.791 1.92697C152.76 1.96275 152.737 2.00463 152.723 2.04993C152.709 2.09522 152.704 2.14293 152.71 2.18999C152.71 2.41999 152.83 2.58999 153.05 2.57999H157.54C157.67 2.57999 157.72 2.57999 157.72 2.63999C157.72 2.69999 157.72 2.70999 157.62 2.75999C157.127 3.09116 156.601 3.36937 156.05 3.58999C155.597 3.30117 155.122 3.04712 154.63 2.82999C154.556 2.79134 154.474 2.77078 154.39 2.76999C154.335 2.77195 154.28 2.78541 154.23 2.80951C154.18 2.83362 154.136 2.86783 154.1 2.90999C154.046 2.97488 154.014 3.0556 154.01 3.13999C154.014 3.19295 154.033 3.24363 154.065 3.28613C154.097 3.32862 154.14 3.36118 154.19 3.37999C154.42 3.47999 154.89 3.69999 155.32 3.93999H152.32C152.12 3.93999 152 4.08999 152 4.30999C152 4.52999 152.12 4.70999 152.32 4.70999L155.15 4.67999Z" fill="#323333"/>
</svg>
